<svg xmlns="http://www.w3.org/2000/svg" xmlns:xlink="http://www.w3.org/1999/xlink" width="258" height="253" viewBox="0 0 258 253"><defs><style>.a{clip-path:url(#b);}.b{fill:#428cff;}.c{fill:rgba(0,0,0,0.18);}.d{fill:#3673d1;}</style><clipPath id="b"><rect width="258" height="253"/></clipPath></defs><g id="a" class="a"><path class="b" d="M-1.775,285.207s47.867-62.67,92.9-62.67,41.922,62.67,90.532,62.67,78.7-26.972,78.7-26.972V-3.55H-1.775Z" transform="translate(-0.29 -35.207)"/><path class="c" d="M-4.734,8.284S62.122,74.267,111.834,60.947s82.114,7.581,76.923,36.686-16.081,38.12-47.929,29.586-49.112-44.97-92.9-29.586S-7.1,148.521-7.1,148.521Z"/><path class="d" d="M204.474,19.257c-5.335-3.08-14.005-1.751-14.705,12.955s14.355,21.358,25.209,24.159,14.705-2.8,17.856-13.3,0-16.456-9.8-17.856S209.809,22.337,204.474,19.257Z"/><path class="d" d="M204.474,19.257c-8.316,1.751-13.126,6.4-14.705,12.955s1.352,11.659,8.39,13.261,14.619-3.221,19.761-6.853,8.472-8.57,5.111-13.41S212.79,17.506,204.474,19.257Z" transform="translate(-29.789 156.025)"/><path class="d" d="M196.462,18.983c-3.91.823-6.172,3.009-6.914,6.091s.636,5.481,3.945,6.235,6.873-1.515,9.291-3.222,3.983-4.029,2.4-6.305S200.372,18.159,196.462,18.983Z" transform="translate(274.044 11.369) rotate(104)"/><path class="d" d="M196.462,18.983c-3.91.823-6.172,3.009-6.914,6.091s.636,5.481,3.945,6.235,6.873-1.515,9.291-3.222,3.983-4.029,2.4-6.305S200.372,18.159,196.462,18.983Z" transform="translate(121.518 -46.657) rotate(104)"/><path class="d" d="M196.462,18.983c-3.91.823-6.172,3.009-6.914,6.091s.636,5.481,3.945,6.235,6.873-1.515,9.291-3.222,3.983-4.029,2.4-6.305S200.372,18.159,196.462,18.983Z" transform="matrix(0.995, -0.105, 0.105, 0.995, -162.765, 148.684)"/><path class="d" d="M196.462,18.983a8.713,8.713,0,0,0-6.914,6.091c-.742,3.081.636,5.481,3.945,6.235s6.993-1.022,9.291-3.222,1.483-3.3-.1-5.577S199.747,18.342,196.462,18.983Z" transform="translate(-9.23 178.004) rotate(1)"/><path class="d" d="M96.75,12.6s8.432-4.787,12.575,3.181,7.076,12.4,2.135,12.878-16.433-.129-20.36-4.591S96.75,12.6,96.75,12.6Z" transform="translate(78.553 27)"/><path class="b" d="M90.9,19.751s12.448-13.689,16.112-2.883S105.6,29.4,101.233,30.052,94.37,34.158,90.9,28.107,90.9,19.751,90.9,19.751Z" transform="translate(-49.447 51.708)"/><path class="b" d="M90.128,16.236s6.231-6.852,8.065-1.443,3.1,9.949.917,10.274-7.244-1.619-8.982-4.648S90.128,16.236,90.128,16.236Z" transform="translate(70.824 -21.931) rotate(82)"/><path class="b" d="M89.251,12.888c3.587-2.538,13.39-8.031,15.224-2.622s-.549,16.611-4.514,20.6-8.881-1.6-11.346-4.642S85.664,15.426,89.251,12.888Z" transform="translate(152.824 0.069) rotate(82)"/><path class="d" d="M91.1,17.9s14.081-10.094,18.225-2.126-1.594,9.243-6.534,9.721S95.028,28.527,91.1,24.064,91.1,17.9,91.1,17.9Z" transform="matrix(-0.875, 0, 0.042, -0.996, 313.728, 91.018)"/></g></svg>