<svg xmlns="http://www.w3.org/2000/svg" xmlns:xlink="http://www.w3.org/1999/xlink" width="258" height="163" viewBox="0 0 258 163"><defs><clipPath id="b"><rect width="258" height="163"/></clipPath></defs><g id="a" clip-path="url(#b)"><path d="M-1.775,191.42S46.092,149.1,91.124,149.1s41.922,42.315,90.532,42.315,78.7-18.212,78.7-18.212V-3.55H-1.775Z" transform="translate(-0.29 -35.207)" fill="#428cff"/><path d="M-4.734,8.284S62.122,74.267,111.834,60.947s82.114,7.581,76.923,36.686-16.081,38.12-47.929,29.586-49.112-44.97-92.9-29.586S-7.1,148.521-7.1,148.521Z" transform="translate(0 -30.883)" fill="rgba(0,0,0,0.18)"/><path d="M204.474,19.257c-5.335-3.08-14.005-1.751-14.705,12.955s14.355,21.358,25.209,24.159,14.705-2.8,17.856-13.3,0-16.456-9.8-17.856S209.809,22.337,204.474,19.257Z" transform="translate(15.229 -9.569)" fill="#3673d1"/><path d="M204.474,19.257c-8.316,1.751-13.126,6.4-14.705,12.955s1.352,11.659,8.39,13.261,14.619-3.221,19.761-6.853,8.472-8.57,5.111-13.41S212.79,17.506,204.474,19.257Z" transform="translate(0.591 81.379)" fill="#3673d1"/><path d="M7.11.244C3.2,1.067.938,3.253.2,6.334s.636,5.481,3.945,6.235,6.873-1.515,9.291-3.222,3.983-4.029,2.4-6.305S11.019-.58,7.11.244Z" transform="translate(230.089 123.547) rotate(104)" fill="#3673d1"/><path d="M7.11.244C3.2,1.067.938,3.253.2,6.334s.636,5.481,3.945,6.235,6.873-1.515,9.291-3.222,3.983-4.029,2.4-6.305S11.019-.58,7.11.244Z" transform="translate(63.527 92.675) rotate(104)" fill="#3673d1"/><path d="M7.11.244C3.2,1.067.938,3.253.2,6.334s.636,5.481,3.945,6.235,6.873-1.515,9.291-3.222,3.983-4.029,2.4-6.305S11.019-.58,7.11.244Z" transform="matrix(0.995, -0.105, 0.105, 0.995, 31.653, 100.85)" fill="#3673d1"/><path d="M7.11.126A8.713,8.713,0,0,0,.2,6.217C-.546,9.3.832,11.7,4.141,12.452s6.993-1.022,9.291-3.222,1.483-3.3-.1-5.577S10.394-.515,7.11.126Z" transform="translate(189.522 130) rotate(1)" fill="#3673d1"/><path d="M96.75,12.6s8.432-4.787,12.575,3.181,7.076,12.4,2.135,12.878-16.433-.129-20.36-4.591S96.75,12.6,96.75,12.6Z" transform="translate(87.842 -0.866)" fill="#3673d1"/><path d="M90.9,19.751s12.448-13.689,16.112-2.883S105.6,29.4,101.233,30.052,94.37,34.158,90.9,28.107,90.9,19.751,90.9,19.751Z" transform="translate(-73.447 18.681)" fill="#428cff"/><path d="M.772,3.523S7-3.33,8.837,2.08s3.1,9.949.917,10.274S2.51,10.735.772,7.705.772,3.523.772,3.523Z" transform="translate(45.884 42.332) rotate(82)" fill="#428cff"/><path d="M2.588,4.922C6.175,2.384,15.978-3.109,17.812,2.3S17.263,18.912,13.3,22.9,4.416,21.3,1.951,18.26-1,7.46,2.588,4.922Z" transform="translate(156.996 42.332) rotate(82)" fill="#428cff"/><path d="M1.745,5.189S15.827-4.9,19.97,3.064s-1.594,9.243-6.534,9.721S5.673,15.813,1.745,11.351,1.745,5.189,1.745,5.189Z" transform="matrix(-0.875, 0, 0.042, -0.996, 236.113, 42.548)" fill="#3673d1"/></g></svg>